<svg width="10" height="6" viewBox="0 0 10 6" fill="none" xmlns="http://www.w3.org/2000/svg">
<path d="M4.99998 5.23086C4.89998 5.23086 4.80323 5.21211 4.70973 5.17461C4.61573 5.13711 4.53748 5.08711 4.47498 5.02461L1.02498 1.57461C0.887475 1.43711 0.818726 1.26211 0.818726 1.04961C0.818726 0.837109 0.887475 0.662109 1.02498 0.524609C1.16248 0.387109 1.33748 0.318359 1.54998 0.318359C1.76248 0.318359 1.93748 0.387109 2.07498 0.524609L4.99998 3.44961L7.92498 0.524609C8.06248 0.387109 8.23748 0.318359 8.44998 0.318359C8.66248 0.318359 8.83747 0.387109 8.97497 0.524609C9.11247 0.662109 9.18123 0.837109 9.18123 1.04961C9.18123 1.26211 9.11247 1.43711 8.97497 1.57461L5.52498 5.02461C5.44998 5.09961 5.36873 5.15261 5.28123 5.18361C5.19373 5.21511 5.09998 5.23086 4.99998 5.23086Z" fill="#424242"/>
</svg>
