<svg width="10" height="10" viewBox="0 0 10 10" fill="none" xmlns="http://www.w3.org/2000/svg">
<path d="M9.72504 0.282179C9.65566 0.212652 9.57324 0.157491 9.48251 0.119855C9.39178 0.082219 9.29452 0.0628463 9.19629 0.0628463C9.09807 0.0628463 9.00081 0.082219 8.91008 0.119855C8.81935 0.157491 8.73693 0.212652 8.66755 0.282179L5.00005 3.94218L1.33255 0.274679C1.26311 0.205243 1.18068 0.150163 1.08995 0.112584C0.99923 0.0750054 0.901994 0.0556641 0.803796 0.0556641C0.705598 0.0556641 0.608361 0.0750054 0.517638 0.112584C0.426915 0.150163 0.344482 0.205243 0.275046 0.274679C0.205609 0.344116 0.150529 0.426549 0.11295 0.517272C0.0753716 0.607995 0.0560303 0.705232 0.0560303 0.80343C0.0560303 0.901628 0.0753716 0.998864 0.11295 1.08959C0.150529 1.18031 0.205609 1.26274 0.275046 1.33218L3.94255 4.99968L0.275046 8.66718C0.205609 8.73662 0.150529 8.81905 0.11295 8.90977C0.0753716 9.00049 0.0560303 9.09773 0.0560303 9.19593C0.0560303 9.29413 0.0753716 9.39136 0.11295 9.48209C0.150529 9.57281 0.205609 9.65524 0.275046 9.72468C0.344482 9.79412 0.426915 9.8492 0.517638 9.88677C0.608361 9.92435 0.705598 9.94369 0.803796 9.94369C0.901994 9.94369 0.99923 9.92435 1.08995 9.88677C1.18068 9.8492 1.26311 9.79412 1.33255 9.72468L5.00005 6.05718L8.66755 9.72468C8.73698 9.79412 8.81942 9.8492 8.91014 9.88677C9.00086 9.92435 9.0981 9.94369 9.19629 9.94369C9.29449 9.94369 9.39173 9.92435 9.48245 9.88677C9.57318 9.8492 9.65561 9.79412 9.72504 9.72468C9.79448 9.65524 9.84956 9.57281 9.88714 9.48209C9.92472 9.39136 9.94406 9.29413 9.94406 9.19593C9.94406 9.09773 9.92472 9.00049 9.88714 8.90977C9.84956 8.81905 9.79448 8.73662 9.72504 8.66718L6.05755 4.99968L9.72504 1.33218C10.01 1.04718 10.01 0.567179 9.72504 0.282179Z" fill="#424242"/>
</svg>
