<svg width="73" height="70" viewBox="0 0 73 70" fill="none" xmlns="http://www.w3.org/2000/svg">
<g clip-path="url(#clip0_68_823)">
<path d="M7.82476 0.352468C7.47229 0.690836 7.47229 0.704934 7.47229 3.59516V6.4854H19.8791C30.3826 6.4854 32.3565 6.51359 32.6808 6.68277C32.9769 6.85196 49.3877 23.1359 49.5146 23.4038C49.5427 23.4461 49.585 27.1681 49.6273 31.6797L49.6979 39.8992L52.2074 35.5569L54.7029 31.2285L54.6747 15.9597L54.6324 0.676737L54.2376 0.338368L53.8429 0H31.003H8.16313L7.82476 0.352468Z" fill="black"/>
<path d="M0.634441 9.05151C0.479355 9.1361 0.281974 9.31939 0.183283 9.43217C0.0422961 9.61546 0.0140987 16.2559 0 39.4483V69.2388L0.352467 69.5772L0.690835 69.9296H23.573C41.3373 69.9155 46.5116 69.8873 46.6808 69.7464C47.2024 69.3516 47.2306 69.0696 47.2306 63.8672C47.2306 59.835 47.1884 58.7776 47.0615 58.8199C45.426 59.4261 44.9184 59.4121 44.5095 58.7634C44.3122 58.4674 43.2829 52.4473 43.2548 51.4885C43.2407 51.2066 43.861 50.0223 45.2427 47.6255L47.2306 44.1713V34.7111V25.2368H39.6174C31.2145 25.2368 31.3414 25.2509 31.0313 24.3767C30.9325 24.0666 30.8761 21.5429 30.8761 16.411V8.88232H15.9033C4.89225 8.89643 0.845921 8.93873 0.634441 9.05151ZM27.4219 15.7202C27.7745 16.0586 27.8731 16.6366 27.6899 17.13C27.4361 17.7645 27.3938 17.7645 16.7915 17.7645H6.78147L6.4008 17.4261C6.10473 17.1723 6.00604 16.9749 6.00604 16.5661C6.00604 16.1572 6.10473 15.9598 6.4008 15.706L6.78147 15.3677H16.9325H27.0835L27.4219 15.7202ZM27.4219 24.8843C27.9154 25.3637 27.8872 25.984 27.3656 26.5198L26.9567 26.9287H17.003C10.7714 26.9287 6.93656 26.8722 6.69687 26.7876C6.28802 26.6326 5.87915 25.8148 6.02014 25.4201C6.06243 25.2791 6.23162 25.0253 6.38671 24.842L6.66868 24.5319H16.8761H27.0835L27.4219 24.8843ZM40.8439 34.0062C41.0554 34.2036 41.1681 34.4714 41.1681 34.7816C41.1681 35.4442 40.9708 35.7544 40.4491 35.9377C40.1249 36.0505 35.1903 36.0928 23.5166 36.0928C5.4139 36.0928 6.4008 36.135 6.09063 35.2468C5.90735 34.7534 5.97784 34.4574 6.38671 34.0062L6.66868 33.696H23.6012H40.5196L40.8439 34.0062ZM40.7311 43.0012C41.1681 43.2267 41.3796 43.9175 41.1541 44.4251C40.8016 45.2992 41.6193 45.2569 23.7281 45.2569C12.6325 45.2569 7.23263 45.2006 6.86606 45.1018C5.93554 44.848 5.69587 43.6356 6.4572 43.0575C6.65458 42.9024 9.95367 42.8743 23.5871 42.8601C34.147 42.8601 40.576 42.9166 40.7311 43.0012ZM40.5196 52.0807C41.14 52.3344 41.4079 52.9831 41.1681 53.5752C41.0695 53.8148 40.8721 54.0686 40.7311 54.1391C40.576 54.2237 34.1329 54.2801 23.573 54.2801H6.66868L6.38671 53.9559C5.97784 53.5047 5.90735 53.2227 6.09063 52.7151C6.38671 51.8551 5.55488 51.8974 23.5871 51.8834C37.2628 51.8834 40.1249 51.9115 40.5196 52.0807ZM40.5902 61.2589C40.8157 61.3717 41.0272 61.5692 41.0835 61.6819C41.2669 62.1613 41.1681 62.7957 40.858 63.1199L40.5619 63.4442H23.6153H6.66868L6.38671 63.1199C5.97784 62.6829 5.90736 62.3868 6.07654 61.8934C6.38671 61.0051 5.3857 61.0616 23.5871 61.0474C37.8973 61.0474 40.2518 61.0757 40.5902 61.2589Z" fill="black"/>
<path d="M33.3011 16.7349L33.3434 22.7692L39.3776 22.8115C42.6908 22.8256 45.3977 22.7974 45.3977 22.741C45.3977 22.6 33.5125 10.7148 33.3716 10.7148C33.3152 10.7148 33.287 13.4218 33.3011 16.7349Z" fill="black"/>
<path d="M65.7704 18.0323C65.009 18.3849 64.3605 19.0757 64.6001 19.2731C64.8399 19.4563 69.5911 22.135 69.6898 22.135C69.8308 22.135 70.0705 21.2468 70.0705 20.7393C70.0705 20.0202 69.4784 18.8501 68.9285 18.4412C67.9698 17.7222 66.7572 17.5671 65.7704 18.0323Z" fill="#FE0000"/>
<path d="M54.6465 36.1208C47.724 48.1048 46.1168 50.9667 46.2719 51.1078C46.4975 51.3193 51.1642 53.998 51.2911 53.998C51.3757 53.998 67.4482 26.28 68.2659 24.7291L68.5196 24.2639L65.8973 22.7835C64.4452 21.9516 63.2609 21.2891 63.2326 21.2891C63.2186 21.2891 59.3555 27.9577 54.6465 36.1208Z" fill="#FE0000"/>
<path d="M69.1682 23.1782C68.8862 23.6716 68.6606 24.151 68.6606 24.2356C68.6606 24.3202 68.8862 24.5034 69.1541 24.6445L69.6476 24.8841L67.5328 28.5498C66.1934 30.876 65.418 32.3564 65.418 32.6102C65.418 33.4984 66.6869 34.0342 67.3636 33.442C67.5186 33.3152 68.6465 31.4682 69.8591 29.3393C71.4944 26.4913 72.1008 25.3353 72.143 24.8982C72.2276 24.0241 71.847 23.4319 70.7613 22.7975C70.2678 22.5155 69.8168 22.2759 69.7603 22.2759C69.718 22.2759 69.4502 22.6847 69.1682 23.1782Z" fill="#FE0000"/>
<path d="M53.7724 54.703C53.2931 55.5208 52.7855 56.3103 52.6446 56.4795C52.4894 56.6346 51.7564 57.0012 50.995 57.2972L49.6274 57.8329V59.4402V61.0474H51.7281C53.6174 61.0474 53.857 61.0193 54.1813 60.7655C54.3928 60.5963 54.5902 60.272 54.6325 60.0183C54.6748 59.7645 54.7029 58.1432 54.6748 56.3949L54.6325 53.2227L53.7724 54.703Z" fill="black"/>
<path d="M46.2013 55.0835C46.3001 55.7603 46.427 56.3383 46.4551 56.3666C46.5116 56.437 48.443 55.7603 48.7673 55.5629C48.8942 55.4784 48.5276 55.1963 47.5548 54.6465C46.7794 54.2095 46.1168 53.8569 46.0745 53.8569C46.0322 53.8569 46.0886 54.4068 46.2013 55.0835Z" fill="#FE0000"/>
</g>
<defs>
<clipPath id="clip0_68_823">
<rect width="72.2205" height="70" fill="white"/>
</clipPath>
</defs>
</svg>
