<svg width="24" height="24" viewBox="0 0 24 24" fill="none" xmlns="http://www.w3.org/2000/svg">
<path d="M22.8003 1.21711C22.6417 1.05819 22.4533 0.932104 22.246 0.846078C22.0386 0.760053 21.8163 0.715773 21.5917 0.715773C21.3672 0.715773 21.1449 0.760053 20.9375 0.846078C20.7301 0.932104 20.5418 1.05819 20.3832 1.21711L12.0003 9.58282L3.61746 1.19996C3.45874 1.04125 3.27033 0.915353 3.06296 0.829459C2.85559 0.743565 2.63334 0.699356 2.40889 0.699356C2.18443 0.699356 1.96218 0.743565 1.75481 0.829459C1.54744 0.915353 1.35903 1.04125 1.20031 1.19996C1.0416 1.35867 0.915704 1.54709 0.82981 1.75446C0.743916 1.96183 0.699707 2.18408 0.699707 2.40853C0.699707 2.63299 0.743916 2.85524 0.82981 3.06261C0.915704 3.26998 1.0416 3.45839 1.20031 3.61711L9.58317 12L1.20031 20.3828C1.0416 20.5415 0.915704 20.7299 0.82981 20.9373C0.743916 21.1447 0.699707 21.3669 0.699707 21.5914C0.699707 21.8158 0.743916 22.0381 0.82981 22.2455C0.915704 22.4528 1.0416 22.6412 1.20031 22.8C1.35903 22.9587 1.54744 23.0846 1.75481 23.1705C1.96218 23.2564 2.18443 23.3006 2.40889 23.3006C2.63334 23.3006 2.85559 23.2564 3.06296 23.1705C3.27033 23.0846 3.45874 22.9587 3.61746 22.8L12.0003 14.4171L20.3832 22.8C20.5419 22.9587 20.7303 23.0846 20.9377 23.1705C21.145 23.2564 21.3673 23.3006 21.5917 23.3006C21.8162 23.3006 22.0384 23.2564 22.2458 23.1705C22.4532 23.0846 22.6416 22.9587 22.8003 22.8C22.959 22.6412 23.0849 22.4528 23.1708 22.2455C23.2567 22.0381 23.3009 21.8158 23.3009 21.5914C23.3009 21.3669 23.2567 21.1447 23.1708 20.9373C23.0849 20.7299 22.959 20.5415 22.8003 20.3828L14.4175 12L22.8003 3.61711C23.4517 2.96568 23.4517 1.86853 22.8003 1.21711Z" fill="black"/>
</svg>
