<svg width="64" height="64" viewBox="0 0 64 64" fill="none" xmlns="http://www.w3.org/2000/svg">
<path d="M18.1 8.49986C16.125 8.54986 15.8625 8.58736 15.55 8.82486C15.3625 8.96236 14.8375 9.74986 14.3875 10.5749L13.5625 12.0624L12.525 12.0999C11.575 12.1374 11.5 12.1499 11.425 12.4249C11.3875 12.5874 11.375 12.8874 11.4 13.0749C11.4375 13.4124 11.475 13.4374 12.0375 13.4749C12.3625 13.4999 12.625 13.5624 12.625 13.6374C12.625 13.6999 12.4 14.1874 12.1125 14.7249C11.7125 15.4874 11.5875 15.8999 11.5375 16.5249L11.475 17.3249L16.65 17.3374C21.8 17.3374 21.8375 17.3374 22.425 17.6249C23.075 17.9374 23.35 18.3124 24.425 20.2749L25.0125 21.3749H25.9125C26.4125 21.3749 26.95 21.4499 27.125 21.5374C27.5625 21.7624 27.8 22.5249 27.65 23.2249C27.5 23.8874 27.525 23.8999 28.7625 23.8499L29.6875 23.8124L29.7625 22.4999C29.8 21.7749 29.9 21.0124 29.9875 20.7874C30.1 20.4999 30.1375 19.7624 30.1 18.1499L30.0625 15.9124L29.5 14.7999C29.1875 14.1874 28.925 13.6499 28.9 13.5874C28.875 13.5374 29.1375 13.4999 29.475 13.4999C30.15 13.4999 30.25 13.3999 30.25 12.7624C30.25 12.2374 30.0375 12.1249 29.0125 12.1249H28.0625L27.1875 10.5374C26.5625 9.39986 26.2 8.88736 25.9375 8.73736C25.625 8.56236 25.1125 8.52486 22.9375 8.48736C21.5 8.46236 19.3125 8.46236 18.1 8.49986ZM25.5875 9.36236C25.8375 9.48736 28.125 13.6124 28.125 13.9249C28.125 14.0999 27.4375 14.1249 20.825 14.1249C16.4375 14.1249 13.4875 14.0749 13.4375 14.0124C13.375 13.8874 15.5125 9.84986 15.8375 9.49986C15.95 9.37486 16.375 9.28736 17.1625 9.22486C18.8125 9.11236 25.325 9.21236 25.5875 9.36236ZM15.125 15.7999C16.0375 16.2374 16.1875 16.3624 16.1875 16.6249V16.9374L14.8125 16.9249C14 16.9249 13.325 16.8499 13.1625 16.7624C12.6 16.4624 12.675 15.4999 13.275 15.2499C13.6375 15.1124 13.825 15.1624 15.125 15.7999ZM28.6625 15.5249C28.95 15.8749 28.9375 16.1749 28.5875 16.5749C28.3 16.8999 28.25 16.9124 26.8625 16.9249L25.4375 16.9374L25.4 16.6124C25.3625 16.3249 25.4625 16.2374 26.5875 15.7124C27.9 15.0874 28.2625 15.0624 28.6625 15.5249Z" fill="black"/>
<path d="M19.625 9.75C19.625 9.9875 19.7125 10 20.75 10C21.7875 10 21.875 9.9875 21.875 9.75C21.875 9.5125 21.7875 9.5 20.75 9.5C19.7125 9.5 19.625 9.5125 19.625 9.75Z" fill="black"/>
<path d="M23.15 10.6875C22.6125 11.1375 22.425 11.65 22.6 12.2375C22.8125 12.925 23.25 13.275 23.9875 13.35C24.55 13.4 24.6375 13.3625 25.05 12.9875C25.625 12.4625 25.75 11.8625 25.4375 11.2C25.0375 10.35 23.8625 10.0875 23.15 10.6875Z" fill="#DC4433"/>
<path d="M40.975 8.49995C38.325 8.57495 38.5125 8.46245 37.3 10.65L36.525 12.0625L35.4875 12.125L34.4375 12.1875V12.8125V13.4375L35.0375 13.475C35.3625 13.5 35.625 13.55 35.625 13.6C35.625 13.6375 35.3875 14.125 35.1 14.6875L34.5625 15.6875L34.525 18.225C34.4875 20.35 34.5125 20.8125 34.675 21.0625C34.8 21.2625 34.875 21.7375 34.9 22.5875L34.9375 23.8125L35.8375 23.85L36.7375 23.8875L36.6 23.5C36.4125 22.9375 36.5375 22.025 36.8625 21.7C37.0875 21.4875 37.3125 21.425 38.1625 21.4L39.2 21.35L40.0375 19.825C41.4875 17.1875 41 17.3375 47.8 17.3375H53.15L53.075 16.575C53.025 16.025 52.85 15.5125 52.4375 14.7125C52.125 14.1125 51.875 13.5875 51.875 13.5625C51.875 13.525 52.15 13.5 52.5 13.5C53.1 13.5 53.1125 13.4875 53.1875 13.075C53.2375 12.8375 53.2125 12.5375 53.1375 12.3875C53.0125 12.15 52.875 12.125 52.0125 12.125H51.025L50.1625 10.5375C49.0375 8.44995 49.2125 8.53745 45.8125 8.48745C44.375 8.46245 42.1875 8.46245 40.975 8.49995ZM48.6375 9.44995C48.925 9.69995 51.125 13.6875 51.125 13.9375C51.125 14.1 50.15 14.125 43.825 14.125C39.0625 14.125 36.4875 14.075 36.4375 14C36.3625 13.875 38.4875 9.87495 38.8375 9.47495C39.0875 9.19995 40.1875 9.14995 44.8625 9.19995C47.975 9.22495 48.425 9.26245 48.6375 9.44995ZM38.0875 15.7875C39.0375 16.2375 39.1875 16.35 39.1875 16.625C39.1875 16.9125 39.1375 16.9375 38.5 16.975C37.375 17.05 36.2625 16.8875 35.9875 16.6125C35.6375 16.2625 35.675 15.7 36.0875 15.375C36.5 15.05 36.6375 15.0875 38.0875 15.7875ZM51.2875 15.2625C51.8875 15.5375 51.975 16.3125 51.4625 16.7375C51.3375 16.825 50.725 16.925 49.9125 16.9625C48.8 17.025 48.5375 17 48.4 16.85C48.125 16.5125 48.35 16.3125 49.6 15.7125C50.95 15.05 50.875 15.075 51.2875 15.2625Z" fill="black"/>
<path d="M42.625 9.75C42.625 9.9875 42.7125 10 43.75 10C44.7875 10 44.875 9.9875 44.875 9.75C44.875 9.5125 44.7875 9.5 43.75 9.5C42.7125 9.5 42.625 9.5125 42.625 9.75Z" fill="black"/>
<path d="M46.2375 10.5625C46.05 10.6625 45.8125 10.95 45.6875 11.2C45.375 11.8625 45.5 12.4625 46.075 12.9875C46.4875 13.3625 46.575 13.4 47.1375 13.35C48.575 13.2125 49.075 11.6125 47.9875 10.6875C47.55 10.325 46.775 10.275 46.2375 10.5625Z" fill="#DC4433"/>
<path d="M13.3125 17.9875C11.95 18.0375 11.0875 18.125 10.9125 18.225C10.525 18.4375 10.1375 19 9.4375 20.3125C8.425 22.2 8.5375 22.1125 7.275 22.15L6.1875 22.1875V22.875V23.5625L6.8875 23.6L7.5875 23.6375L6.95 24.8875L6.3125 26.1375L6.275 28.8125C6.2375 31.0375 6.275 31.55 6.425 31.8625C6.5375 32.075 6.625 32.55 6.625 32.9375V33.6375L7.7625 33.6L8.9 33.5625L9.125 32.85C9.2375 32.4625 9.4625 31.95 9.6125 31.7125C9.9375 31.175 9.9375 31.125 9.625 31.125C8.95 31.125 8.475 30 8.7375 29.0375C8.9625 28.225 9.2375 28.075 10.5375 28L11.6875 27.9375L12.5 26.4375C12.95 25.6125 13.425 24.7875 13.55 24.5875L13.775 24.25H11.1375C9.0375 24.25 8.475 24.2125 8.425 24.0875C8.35 23.8875 10.75 19.45 11.1375 19.0625C11.375 18.825 11.55 18.8125 16.55 18.8125C21.475 18.8125 21.7375 18.825 21.9875 19.05C22.1375 19.1875 22.7625 20.2375 23.4 21.4L24.5375 23.5H25.75H26.975L27.05 23.125C27.0875 22.9125 27.0625 22.6125 27 22.4375C26.8875 22.15 26.825 22.1375 25.7875 22.1L24.6875 22.0625L23.7875 20.4375C22.775 18.625 22.3875 18.1625 21.825 18.075C21.15 17.975 15.525 17.9125 13.3125 17.9875ZM10.125 26.0375C11.45 26.7 11.6875 26.9375 11.3625 27.325C11.2375 27.475 10.975 27.5 9.825 27.425C8.3 27.3375 7.8 27.1625 7.675 26.6875C7.5125 26.0375 7.9875 25.3875 8.625 25.3875C8.725 25.3875 9.4 25.675 10.125 26.0375Z" fill="black"/>
<path d="M44.35 17.9875C42.375 18.05 42.1 18.0875 41.8 18.325C41.6 18.4625 41.025 19.3625 40.4875 20.325L39.525 22.0625L38.425 22.1C37.25 22.1375 37.125 22.2 37.125 22.7875C37.125 23.4375 37.3125 23.625 38.0125 23.625C38.3625 23.625 38.625 23.6625 38.6 23.7125C38.575 23.775 38.275 24.375 37.9375 25.0625L37.3125 26.3125L37.275 28.7625C37.2375 30.775 37.2625 31.2875 37.425 31.675C37.5625 32.0125 37.625 32.55 37.625 33.4C37.625 34.9625 37.7 35.125 38.475 35.125C39.0125 35.125 39.1125 35.0625 39.6125 34.55C40.0625 34.0875 40.175 33.875 40.225 33.4C40.2625 33.075 40.325 32.7875 40.3625 32.75C40.4375 32.6875 41.125 31.2875 41.125 31.2C41.125 31.175 40.9625 31.125 40.75 31.0875C40.2125 30.975 39.9625 30.4125 40.025 29.4125C40.1 28.2375 40.3125 28.075 41.7875 28.025L42.9375 27.975L43.5625 26.8375C43.9125 26.2125 44.375 25.4 44.6 25.025C44.8125 24.65 45 24.325 45 24.3C45 24.275 43.7625 24.25 42.2625 24.25C40.1875 24.25 39.5125 24.2125 39.4625 24.0875C39.3625 23.8375 42.0375 19.0875 42.3875 18.9125C42.6125 18.7875 43.95 18.75 47.625 18.75C51.3 18.75 52.6375 18.7875 52.8625 18.9125C53.0625 19.0125 53.5875 19.8125 54.375 21.25L55.5875 23.4375H56.825H58.0625L58.1 23.075C58.125 22.8875 58.1125 22.5875 58.075 22.425C58 22.1375 57.95 22.125 56.875 22.125H55.7625L54.8125 20.375C53.8125 18.55 53.4875 18.175 52.825 18.075C52.15 17.975 46.6625 17.9125 44.35 17.9875ZM41.3125 26.0875C42.2375 26.5375 42.575 26.75 42.6 26.95C42.675 27.4375 42.3875 27.5125 40.8125 27.425C39.575 27.35 39.3 27.2875 39.0375 27.075C38.6 26.6875 38.6 26.05 39.0625 25.65C39.5125 25.275 39.7125 25.3125 41.3125 26.0875Z" fill="black"/>
<path d="M15.375 19.4375V19.7625L16.6 19.725C17.75 19.6875 17.8125 19.675 17.85 19.4C17.8875 19.125 17.8625 19.125 16.6375 19.125H15.375V19.4375Z" fill="black"/>
<path d="M46.375 19.4375V19.75H47.625H48.875V19.4375V19.125H47.625H46.375V19.4375Z" fill="black"/>
<path d="M19.5 20.225C18.025 20.9625 18.25 22.9125 19.8625 23.375C20.425 23.525 21.0375 23.3125 21.4875 22.8C22.2 22 21.925 20.6625 20.9625 20.2125C20.4 19.9375 20.05 19.95 19.5 20.225Z" fill="#DC4433"/>
<path d="M50.5 20.2251C48.975 21.0626 49.525 23.4126 51.2375 23.4126C52.1625 23.4126 52.85 22.8126 52.95 21.9126C53.1125 20.6126 51.6375 19.6001 50.5 20.2251Z" fill="black"/>
<path d="M16.5625 24.2374C15.175 24.2999 14.8875 24.3499 14.55 24.5874C14.3 24.7624 13.825 25.5124 13.1125 26.7999L12.0625 28.7499H10.85C9.5 28.7499 9.375 28.8249 9.375 29.6249C9.375 30.3374 9.55 30.4999 10.3125 30.4999C10.6875 30.4999 11 30.5249 11 30.5624C11 30.5874 10.725 31.1624 10.375 31.8374C10.0375 32.5124 9.725 33.1874 9.6875 33.3374C9.6125 33.5999 9.65 33.6249 10.0875 33.6249C10.75 33.6249 11.125 33.4999 11.125 33.2874C11.125 32.9749 11.7125 32.4999 12.1125 32.4999C12.325 32.4999 12.9875 32.7374 13.5875 33.0249L14.6875 33.5374L17.25 33.6124C19.7375 33.6874 19.825 33.6999 20.3875 34.0249C21.1125 34.4499 21.1 34.4374 22.125 36.2749L22.975 37.8124L23.65 37.8749C24.2625 37.9374 24.3125 37.9624 24.35 38.2749C24.3875 38.5999 24.425 38.6249 25 38.6249C26.1125 38.6249 26.5125 38.9749 26.7 40.1124L26.775 40.6124L27.9875 40.6499L29.1875 40.6874L29.25 41.9374L29.3125 43.1874L30.55 43.2249C31.35 43.2499 31.8375 43.2124 31.95 43.1124C32.0875 42.9999 32.125 42.5999 32.125 41.4749C32.125 40.3749 32.175 39.8874 32.325 39.6124C32.4875 39.2874 32.5125 38.7624 32.475 36.2499L32.4375 33.2624L31.7375 31.8874L31.025 30.5124L31.725 30.4749C32.3625 30.4374 32.45 30.3999 32.6 30.0874C32.725 29.8374 32.7375 29.5999 32.6625 29.2749L32.55 28.8124L31.3 28.7749L30.0375 28.7374L29.025 26.8999C28.0375 25.0999 27.725 24.6749 27.1625 24.3874C26.8375 24.2249 19.075 24.1124 16.5625 24.2374ZM26.9875 25.3499C27.3 25.5874 30.1125 30.5499 30.125 30.8874C30.125 30.9999 30.0375 31.1374 29.925 31.1749C29.8125 31.2124 25.775 31.2499 20.9375 31.2499C13.5625 31.2499 12.1375 31.2249 12.0125 31.0749C11.9 30.9374 12.1625 30.3499 13.325 28.2249C14.125 26.7624 14.8625 25.4749 14.9625 25.3749C15.2 25.1124 17.625 25.0124 22.625 25.0749C26.25 25.1249 26.725 25.1499 26.9875 25.3499ZM30.625 32.7499C30.95 33.0749 31.0625 33.5749 30.9 33.9374C30.6375 34.5124 30.3 34.6124 28.5125 34.6499C27.0375 34.6874 26.825 34.6624 26.7 34.4624C26.475 34.0999 26.75 33.8624 28.1375 33.1624C29.5875 32.4499 30.2125 32.3374 30.625 32.7499Z" fill="black"/>
<path d="M19.625 25.75V26.125H21H22.375V25.75V25.375H21H19.625V25.75Z" fill="black"/>
<path d="M24.125 26.7751C23.45 27.2376 23.225 27.6376 23.225 28.3751C23.225 30.2876 25.7625 30.9626 26.7125 29.3001C26.875 29.0376 27 28.6126 27 28.3751C27 27.7876 26.525 27.0126 26 26.7376C25.4 26.4126 24.6375 26.4376 24.125 26.7751Z" fill="#DC4433"/>
<path d="M48.0625 24.2125C47.3125 24.2375 46.5625 24.275 46.4125 24.3125C45.85 24.4375 45.35 25.075 44.35 26.875L43.3375 28.7375L42.075 28.775L40.8125 28.8125L40.7 29.2625C40.625 29.575 40.6375 29.8125 40.7625 30.075C40.925 30.4 41 30.4375 41.6375 30.475L42.3375 30.5125L41.675 31.85C40.875 33.4625 40.75 33.825 41.0625 33.7125C41.175 33.6625 41.5125 33.625 41.8125 33.625C42.275 33.625 42.3625 33.5875 42.425 33.3125C42.6625 32.375 43.4375 32.275 44.85 32.9875L45.8125 33.475L49.9375 33.5625C52.2625 33.6125 54.275 33.7 54.5375 33.7875C55.3875 34.025 55.95 34.675 57.0625 36.6875L58.1 38.5625L59.325 38.625C60.0125 38.6625 60.6625 38.7375 60.775 38.8C61.575 39.175 61.55 41.6875 60.7375 41.9375C60.5625 42 60.5 42.1375 60.5 42.4875C60.5 43.175 60.65 43.25 61.9375 43.25C62.65 43.25 63.125 43.2 63.225 43.1C63.325 43 63.375 42.45 63.375 41.475C63.375 40.275 63.4125 39.925 63.6 39.6625C63.775 39.375 63.825 38.95 63.85 36.925C63.875 35.6125 63.8375 34.2 63.7625 33.8C63.6875 33.3625 63.375 32.5625 63 31.8375C62.6625 31.1625 62.375 30.5875 62.375 30.5625C62.375 30.525 62.6875 30.5 63.0625 30.5C63.825 30.5 64 30.3375 64 29.625C64 28.825 63.875 28.75 62.525 28.75H61.3125L60.2625 26.8C59.55 25.5125 59.075 24.7625 58.825 24.5875C58.4875 24.35 58.2125 24.3 56.5625 24.225C54.7375 24.15 50.8625 24.1375 48.0625 24.2125ZM55.7 25.0875C58 25.1625 58.2 25.1875 58.4125 25.425C58.85 25.9125 61.3875 30.675 61.35 30.9375C61.3125 31.1875 61.275 31.1875 52.3125 31.1875C43.9 31.1875 43.3125 31.175 43.275 30.975C43.225 30.7375 45.875 25.825 46.2625 25.4375C46.475 25.225 46.725 25.175 48.225 25.1125C51.025 25 53.0625 25 55.7 25.0875ZM61.9375 32.8125C62.3625 33.225 62.35 33.7875 61.9 34.25C61.5625 34.575 61.4875 34.6 59.875 34.6875C58.3375 34.775 58.1875 34.7625 58.0375 34.55C57.95 34.425 57.8875 34.2375 57.9 34.125C57.95 33.8625 60.7125 32.5 61.225 32.5C61.5 32.5 61.7375 32.6 61.9375 32.8125Z" fill="black"/>
<path d="M51 25.75V26.125H52.375H53.75V25.75V25.375H52.375H51V25.75Z" fill="black"/>
<path d="M55.4 26.75C53.775 27.7375 54.475 30.25 56.375 30.25C57.4375 30.25 58.25 29.4375 58.25 28.375C58.25 27.3125 57.4375 26.5 56.375 26.5C56.0375 26.5 55.65 26.6 55.4 26.75Z" fill="#DC4433"/>
<path d="M9.625 34.375C6.225 34.4375 6.025 34.475 5.4375 35.125C5.3 35.275 4.7 36.275 4.1 37.35L3.025 39.3125L1.65 39.375C0.8875 39.4125 0.225 39.4875 0.1625 39.5375C0.1125 39.6 0.0625 39.975 0.0625 40.3875C0.0625 41.2875 0.1625 41.375 1.15 41.375H1.875L1.0875 42.875L0.3125 44.375L0.275 47.75C0.2375 50.55 0.2625 51.1875 0.425 51.525C0.55 51.8125 0.625 52.45 0.65 53.6C0.7 55.65 0.675 55.625 2.325 55.625C3.8625 55.625 3.875 55.6125 3.875 53.925V52.625H12.9375H22V53.925C22 55.575 22.05 55.625 23.625 55.625C25.2375 55.625 25.25 55.6125 25.25 53.6375C25.25 52.3 25.2875 51.9375 25.5 51.4875C25.725 50.9875 25.75 50.6625 25.75 48.125C25.75 44.825 25.675 44.3875 24.75 42.675C24.4 42.05 24.125 41.5 24.125 41.45C24.125 41.4125 24.45 41.375 24.85 41.375C25.25 41.375 25.6375 41.3125 25.725 41.225C25.8125 41.1375 25.875 40.75 25.875 40.35C25.875 39.4375 25.7625 39.375 24.1625 39.375H22.9375L21.7625 37.2375C21.1125 36.0625 20.4375 35 20.275 34.8625C20.1 34.7375 19.7625 34.575 19.5125 34.5125C18.95 34.3625 13.8875 34.2875 9.625 34.375ZM19.5 35.5625C19.8875 35.7625 23.1625 41.65 23.05 41.9375C22.9875 42.1 21.775 42.125 12.9625 42.1C3.8625 42.0625 2.9375 42.05 2.9 41.8625C2.85 41.6125 5.9125 35.9875 6.275 35.6625C6.5 35.4625 6.8375 35.425 9.175 35.375C13.25 35.2625 19.125 35.375 19.5 35.5625ZM4.9375 44.2875C6.525 45.025 6.75 45.1875 6.75 45.5625C6.75 46.1125 6.525 46.1625 4.5625 46.0375C3.0375 45.9375 2.7 45.8875 2.4125 45.6625C1.675 45.125 1.7875 44.1375 2.625 43.725C3.15 43.4625 3.1875 43.475 4.9375 44.2875ZM23.3125 43.6875C24.0625 44.05 24.2125 44.8875 23.6375 45.525L23.2875 45.925L21.4375 46.0375C19.6625 46.1375 19.575 46.1375 19.3375 45.8875C18.8625 45.425 19.1625 45.1375 21.0125 44.275C21.9375 43.85 22.7375 43.5 22.7875 43.5C22.85 43.5 23.0875 43.5875 23.3125 43.6875ZM16.6 50.425C16.625 50.9375 16.5875 51.2 16.475 51.2625C16.2 51.4375 9.575 51.4 9.4 51.225C9.2375 51.0625 9.1875 49.85 9.3375 49.7125C9.3875 49.6625 11.025 49.6375 12.9875 49.65L16.5625 49.6875L16.6 50.425Z" fill="black"/>
<path d="M11.375 36.125V36.5H12.9375H14.5V36.125V35.75H12.9375H11.375V36.125Z" fill="black"/>
<path d="M16.8625 37C15.9 37.2875 15.3125 38.15 15.4 39.175C15.4625 39.975 15.825 40.5375 16.5 40.875C17.725 41.5 19.1375 40.85 19.5 39.5C19.9125 37.975 18.3875 36.5375 16.8625 37Z" fill="#DC4433"/>
<path d="M44.3 34.375C40.15 34.45 40.5125 34.2625 38.8875 37.2375L37.7 39.375H36.425C34.9125 39.375 34.75 39.4625 34.75 40.325C34.75 41.25 34.875 41.375 35.8125 41.375H36.6125L35.9875 42.5C34.95 44.3875 34.9625 44.3125 34.9 47.775C34.85 50.6875 34.8625 50.8875 35.1125 51.4375C35.3375 51.9375 35.375 52.275 35.375 53.6375C35.375 55.6125 35.3875 55.625 37 55.625C38.575 55.625 38.625 55.575 38.625 53.925V52.625H47.6875H56.75V53.9C56.75 54.6125 56.8125 55.275 56.875 55.375C56.9625 55.5125 57.3 55.575 58.2375 55.6C59.9875 55.6625 60 55.65 60 53.5C60 52.15 60.0375 51.8125 60.225 51.5375C60.4 51.25 60.45 50.825 60.475 48.6875C60.5375 45.225 60.45 44.6625 59.5125 42.8375L58.7625 41.375H59.475C60.4625 41.375 60.5625 41.2875 60.5625 40.375C60.5625 39.8375 60.5125 39.5875 60.375 39.5C60.275 39.4375 59.6125 39.375 58.9125 39.375H57.65L56.5625 37.4C55.3375 35.1875 54.95 34.7125 54.2125 34.5125C53.6 34.35 48.925 34.2875 44.3 34.375ZM54.25 35.6125C54.6375 35.8875 57.75 41.4625 57.7125 41.8125C57.6875 42.0625 57.5875 42.0625 47.675 42.1C39.1 42.125 37.6375 42.1 37.5875 41.95C37.5 41.7125 40.75 35.775 41.0625 35.5875C41.3875 35.3875 45.45 35.2875 50.25 35.35C53.5 35.4 53.975 35.425 54.25 35.6125ZM39.825 44.375C41.4875 45.1625 41.75 45.4375 41.275 45.9C41.0375 46.1375 40.95 46.15 39.175 46.025L37.325 45.9125L36.975 45.5125C36.5375 45.0125 36.525 44.5125 36.9375 44.0125C37.275 43.625 37.625 43.4875 38.0625 43.6C38.2 43.625 39 43.975 39.825 44.375ZM58.375 43.95C58.8125 44.375 58.8 45.125 58.35 45.575C58.05 45.8875 57.925 45.9125 56.3 46.025C54.325 46.1625 54.0375 46.1125 53.925 45.6875C53.8 45.1625 53.95 45.0625 56.5 43.925C57.5375 43.4625 57.875 43.475 58.375 43.95ZM51.35 50.35C51.375 50.7375 51.325 51.1 51.2375 51.2C51.125 51.3375 50.4875 51.375 47.75 51.375C45.9 51.375 44.3125 51.3375 44.2 51.3C44.05 51.2375 44 51.05 44 50.5125C44 50.1125 44.0375 49.75 44.0875 49.7125C44.1375 49.6625 45.775 49.6375 47.7375 49.65L51.3125 49.6875L51.35 50.35Z" fill="black"/>
<path d="M46.125 36.125V36.5H47.6875H49.25V36.125V35.75H47.6875H46.125V36.125Z" fill="black"/>
<path d="M51.3 37.1C50 37.7125 49.6625 39.275 50.5875 40.3875C51.2125 41.125 52.2375 41.325 53.125 40.875C53.8 40.5375 54.1625 39.975 54.225 39.175C54.3625 37.575 52.7375 36.4375 51.3 37.1Z" fill="#DC4433"/>
</svg>
