<svg width="16" height="16" viewBox="0 0 16 16" fill="none" xmlns="http://www.w3.org/2000/svg">
<path d="M15.5334 7.25523L8.40844 0.130234C8.34616 0.0680344 8.26685 0.0256855 8.18052 0.00853536C8.09419 -0.00861474 8.00471 0.00020326 7.92339 0.0338756C7.84207 0.067548 7.77255 0.124564 7.72361 0.197724C7.67467 0.270883 7.64851 0.356903 7.64844 0.444921V3.56211H5.71875C5.60065 3.56211 5.48738 3.60903 5.40387 3.69254C5.32035 3.77605 5.27344 3.88932 5.27344 4.00742V11.1324C5.27344 11.2505 5.32035 11.3638 5.40387 11.4473C5.48738 11.5308 5.60065 11.5777 5.71875 11.5777H7.64844V14.6949C7.64851 14.7829 7.67467 14.869 7.72361 14.9421C7.77255 15.0153 7.84207 15.0723 7.92339 15.106C8.00471 15.1396 8.09419 15.1485 8.18052 15.1313C8.26685 15.1142 8.34616 15.0718 8.40844 15.0096L15.5334 7.88461C15.6168 7.80111 15.6637 7.68793 15.6637 7.56992C15.6637 7.45191 15.6168 7.33873 15.5334 7.25523ZM8.53906 13.6195V11.1324C8.53906 11.0143 8.49215 10.901 8.40863 10.8175C8.32512 10.734 8.21185 10.6871 8.09375 10.6871H6.16406V4.45273H8.09375C8.21185 4.45273 8.32512 4.40582 8.40863 4.3223C8.49215 4.23879 8.53906 4.12552 8.53906 4.00742V1.52035L14.5886 7.56992L8.53906 13.6195ZM1.41406 4.00742V11.1324C1.41406 11.2505 1.36715 11.3638 1.28363 11.4473C1.20012 11.5308 1.08685 11.5777 0.96875 11.5777C0.850646 11.5777 0.737379 11.5308 0.653866 11.4473C0.570354 11.3638 0.523438 11.2505 0.523438 11.1324V4.00742C0.523438 3.88932 0.570354 3.77605 0.653866 3.69254C0.737379 3.60903 0.850646 3.56211 0.96875 3.56211C1.08685 3.56211 1.20012 3.60903 1.28363 3.69254C1.36715 3.77605 1.41406 3.88932 1.41406 4.00742ZM3.78906 4.00742V11.1324C3.78906 11.2505 3.74215 11.3638 3.65863 11.4473C3.57512 11.5308 3.46185 11.5777 3.34375 11.5777C3.22565 11.5777 3.11238 11.5308 3.02887 11.4473C2.94535 11.3638 2.89844 11.2505 2.89844 11.1324V4.00742C2.89844 3.88932 2.94535 3.77605 3.02887 3.69254C3.11238 3.60903 3.22565 3.56211 3.34375 3.56211C3.46185 3.56211 3.57512 3.60903 3.65863 3.69254C3.74215 3.77605 3.78906 3.88932 3.78906 4.00742Z" fill="#DC4433"/>
</svg>
